# xmcd
#
# Track frame offsets: 
#        183
#        21428
#        45403
#        66418
#        87728
#        120140
#        142858
#        167610
#
# Disc length: 2503 seconds
#
# Revision: 4
# Processed by: cddbd v1.5.2PL0 Copyright (c) Steve Scherf et al.
# Submitted via: ExactAudioCopy v1.0b3
#
DISCID=6309c508
DTITLE=Freddie Jackson - Rock Me Tonight
DYEAR=1985
DGENRE=R&B
TTITLE0=He'll Never Love You (Like I Do)
TTITLE1=Love Is Just A Touch Away
TTITLE2=I Wanna Say I Love You
TTITLE3=You Are My Lady
TTITLE4=Rock Me Tonight (For Old Times Sake)
TTITLE5=Sing A Song Of Love
TTITLE6=Calling
TTITLE7=Good Morning Heartache (Feat. Stanley Turrentine On Sax)
EXTD=
EXTT0=
EXTT1=
EXTT2=
EXTT3=
EXTT4=
EXTT5=
EXTT6=
EXTT7=
PLAYORDER=
